<svg width="250" height="87" viewBox="0 0 546 87" fill="none" xmlns="http://www.w3.org/2000/svg">
<path d="M530.153 66.6764C525.145 66.6764 520.844 65.7134 517.248 63.7872C513.653 61.8611 510.892 59.1431 508.966 55.6333C507.083 52.1235 506.141 48.0144 506.141 43.3061C506.141 39.7963 506.676 36.6075 507.746 33.7397C508.859 30.8719 510.443 28.4107 512.497 26.3562C514.594 24.3017 517.12 22.7394 520.073 21.6693C523.069 20.5564 526.429 20 530.153 20C532.122 20 534.155 20.2354 536.253 20.7062C538.393 21.1343 540.276 21.7977 541.903 22.6966C543.101 23.3386 543.936 24.1519 544.407 25.1363C544.877 26.1208 545.027 27.1267 544.856 28.1539C544.728 29.1812 544.364 30.1015 543.765 30.9147C543.165 31.728 542.395 32.2844 541.453 32.584C540.511 32.8408 539.484 32.691 538.371 32.1346C537.087 31.5353 535.803 31.0859 534.519 30.7863C533.278 30.4439 531.972 30.2727 530.603 30.2727C527.949 30.2727 525.723 30.7863 523.925 31.8136C522.171 32.798 520.844 34.2533 519.945 36.1794C519.046 38.1056 518.596 40.4811 518.596 43.3061C518.596 46.1311 519.046 48.528 519.945 50.497C520.844 52.4231 522.171 53.8998 523.925 54.9271C525.723 55.9115 527.949 56.4038 530.603 56.4038C531.716 56.4038 532.914 56.2753 534.198 56.0185C535.482 55.7189 536.745 55.2695 537.986 54.6702C539.27 54.1138 540.404 53.964 541.389 54.2208C542.416 54.4776 543.229 54.9913 543.829 55.7617C544.471 56.5322 544.877 57.431 545.049 58.4583C545.22 59.4427 545.07 60.4272 544.599 61.4117C544.171 62.3961 543.401 63.188 542.288 63.7872C540.79 64.6861 538.928 65.3923 536.702 65.906C534.519 66.4196 532.336 66.6764 530.153 66.6764Z" fill="white"/>
<path d="M493.202 66.5481C491.319 66.5481 489.864 66.0344 488.836 65.0072C487.809 63.9371 487.295 62.439 487.295 60.5129V26.1637C487.295 24.1947 487.809 22.6966 488.836 21.6694C489.864 20.6421 491.319 20.1285 493.202 20.1285C495.128 20.1285 496.584 20.6421 497.568 21.6694C498.595 22.6966 499.109 24.1947 499.109 26.1637V60.5129C499.109 62.439 498.617 63.9371 497.632 65.0072C496.648 66.0344 495.171 66.5481 493.202 66.5481Z" fill="white"/>
<path d="M448.378 65.9702C446.366 65.9702 444.826 65.4566 443.756 64.4293C442.728 63.3593 442.215 61.8398 442.215 59.8708V26.8057C442.215 24.8368 442.728 23.3387 443.756 22.3114C444.826 21.2413 446.366 20.7063 448.378 20.7063H464.044C467.297 20.7063 470.058 21.1985 472.326 22.183C474.638 23.1247 476.393 24.4729 477.591 26.2279C478.79 27.9828 479.389 30.0373 479.389 32.3915C479.389 35.0452 478.618 37.3138 477.077 39.1971C475.679 40.955 473.796 42.1908 471.428 42.9046C471.17 42.9825 470.914 42.7853 470.914 42.5152V42.5152C470.914 42.2583 471.147 42.0638 471.398 42.1164C474.246 42.7121 476.46 43.9219 478.041 45.7459C479.753 47.672 480.609 50.1332 480.609 53.1294C480.609 57.11 479.175 60.2561 476.307 62.5674C473.482 64.836 469.608 65.9702 464.686 65.9702H448.378ZM453.515 52.3268C453.515 55.0749 455.742 57.3027 458.49 57.3027H463.081C465.264 57.3027 466.848 56.896 467.832 56.0828C468.859 55.2267 469.373 53.964 469.373 52.2947C469.373 50.6254 468.859 49.3842 467.832 48.5709C466.848 47.7576 465.264 47.351 463.081 47.351H458.49C455.742 47.351 453.515 49.5788 453.515 52.3268V52.3268ZM453.515 34.0287C453.515 36.5994 455.599 38.6835 458.169 38.6835H461.925C464.065 38.6835 465.628 38.2982 466.612 37.5278C467.639 36.7573 468.153 35.5803 468.153 33.9966C468.153 32.4129 467.639 31.2572 466.612 30.5295C465.628 29.7591 464.065 29.3739 461.925 29.3739H458.169C455.599 29.3739 453.515 31.4579 453.515 34.0287V34.0287Z" fill="white"/>
<path d="M395.365 66.5481C394.038 66.5481 392.926 66.2485 392.027 65.6492C391.128 65.0072 390.571 64.1511 390.357 63.0811C390.143 61.9682 390.336 60.7269 390.935 59.3572L406.922 24.9438C407.693 23.2745 408.634 22.0546 409.747 21.2842C410.903 20.5137 412.208 20.1285 413.664 20.1285C415.119 20.1285 416.382 20.5137 417.452 21.2842C418.564 22.0546 419.528 23.2745 420.341 24.9438L436.328 59.3572C437.012 60.7269 437.248 61.9682 437.034 63.0811C436.863 64.1939 436.328 65.05 435.429 65.6492C434.573 66.2485 433.503 66.5481 432.219 66.5481C430.506 66.5481 429.18 66.1628 428.238 65.3924C427.339 64.6219 426.526 63.3807 425.798 61.6686L423.508 56.2831C423.178 55.5068 424.081 54.7894 424.763 55.2861V55.2861C425.413 55.7599 425.078 56.789 424.273 56.789H402.984C402.167 56.789 401.83 55.7424 402.493 55.2662V55.2662C403.184 54.7703 404.09 55.4954 403.757 56.2775L401.465 61.6686C400.694 63.3807 399.902 64.6219 399.089 65.3924C398.276 66.1628 397.035 66.5481 395.365 66.5481ZM413.599 33.0335C413.56 33.0335 413.525 33.0569 413.51 33.0928L406.825 49.056C406.522 49.7807 405.521 49.8466 405.125 49.168V49.168C404.755 48.5333 405.212 47.7363 405.947 47.7363H421.312C422.049 47.7363 422.507 48.5349 422.136 49.1709V49.1709C421.74 49.8498 420.739 49.7854 420.433 49.0614L413.688 33.0926C413.673 33.0568 413.638 33.0335 413.599 33.0335V33.0335Z" fill="white"/>
<path d="M354.7 66.5481C352.816 66.5481 351.361 66.0344 350.334 65.0072C349.306 63.9371 348.793 62.4604 348.793 60.5771V26.6773C348.793 24.7512 349.306 23.2745 350.334 22.2472C351.404 21.2199 352.88 20.7063 354.764 20.7063H370.558C375.694 20.7063 379.654 21.969 382.436 24.4943C385.261 26.9769 386.673 30.4439 386.673 34.8954C386.673 37.7632 386.031 40.2672 384.747 42.4073C383.506 44.5046 381.687 46.1311 379.29 47.2868C377.14 48.3032 374.526 48.8554 371.447 48.9436C371.029 48.9555 370.749 48.5257 370.919 48.1436V48.1436C371.012 47.9349 371.219 47.8004 371.447 47.8004H374.153C375.994 47.8004 377.62 48.2499 379.033 49.1487C380.445 50.0048 381.622 51.3317 382.564 53.1294L385.774 58.9078C386.459 60.149 386.78 61.3689 386.737 62.5674C386.695 63.7231 386.224 64.6861 385.325 65.4566C384.469 66.1842 383.206 66.5481 381.537 66.5481C379.868 66.5481 378.498 66.2056 377.428 65.5208C376.401 64.836 375.48 63.7659 374.667 62.3106L368.824 51.5885C368.311 50.6468 367.647 50.0048 366.834 49.6624C366.064 49.2771 365.165 49.0845 364.138 49.0845V49.0845C362.187 49.0845 360.606 50.6655 360.606 52.6158V60.5771C360.606 62.4604 360.114 63.9371 359.13 65.0072C358.145 66.0344 356.668 66.5481 354.7 66.5481ZM360.606 35.738C360.606 38.4994 362.845 40.738 365.606 40.738H368.439C370.708 40.738 372.441 40.2886 373.64 39.3897C374.838 38.4908 375.437 37.0998 375.437 35.2164C375.437 33.4187 374.838 32.0704 373.64 31.1716C372.441 30.2299 370.708 29.7591 368.439 29.7591H365.606C362.845 29.7591 360.606 31.9977 360.606 34.7591V35.738Z" fill="white"/>
<path d="M301.943 66.5481C300.616 66.5481 299.503 66.2485 298.605 65.6492C297.706 65.0072 297.149 64.1511 296.935 63.0811C296.721 61.9682 296.914 60.7269 297.513 59.3572L313.5 24.9438C314.27 23.2745 315.212 22.0546 316.325 21.2842C317.481 20.5137 318.786 20.1285 320.241 20.1285C321.697 20.1285 322.959 20.5137 324.029 21.2842C325.142 22.0546 326.105 23.2745 326.919 24.9438L342.905 59.3572C343.59 60.7269 343.826 61.9682 343.612 63.0811C343.441 64.1939 342.905 65.05 342.007 65.6492C341.151 66.2485 340.08 66.5481 338.796 66.5481C337.084 66.5481 335.757 66.1628 334.816 65.3924C333.917 64.6219 333.104 63.3807 332.376 61.6686L330.086 56.2831C329.756 55.5068 330.659 54.7894 331.34 55.2861V55.2861C331.991 55.7599 331.656 56.789 330.851 56.789H309.562C308.745 56.789 308.408 55.7424 309.071 55.2662V55.2662C309.762 54.7703 310.667 55.4954 310.335 56.2775L308.043 61.6686C307.272 63.3807 306.48 64.6219 305.667 65.3924C304.854 66.1628 303.613 66.5481 301.943 66.5481ZM320.177 33.0335C320.138 33.0335 320.103 33.0569 320.088 33.0928L313.403 49.056C313.1 49.7807 312.099 49.8466 311.703 49.168V49.168C311.333 48.5333 311.79 47.7363 312.525 47.7363H327.89C328.626 47.7363 329.085 48.5349 328.714 49.1709V49.1709C328.318 49.8498 327.317 49.7854 327.011 49.0614L320.266 33.0926C320.251 33.0568 320.216 33.0335 320.177 33.0335V33.0335Z" fill="white"/>
<path d="M248.179 65.9702C246.167 65.9702 244.627 65.4566 243.557 64.4293C242.529 63.3593 242.016 61.8398 242.016 59.8708V26.8057C242.016 24.8368 242.529 23.3387 243.557 22.3114C244.627 21.2413 246.167 20.7063 248.179 20.7063H269.944C271.485 20.7063 272.641 21.0915 273.411 21.862C274.182 22.6324 274.567 23.7453 274.567 25.2006C274.567 26.6987 274.182 27.8544 273.411 28.6676C272.641 29.4381 271.485 29.8233 269.944 29.8233H257.617C255.241 29.8233 253.316 31.7492 253.316 34.125V34.125C253.316 36.5007 255.241 38.4266 257.617 38.4266H268.532C270.03 38.4266 271.164 38.8119 271.935 39.5823C272.748 40.3528 273.155 41.487 273.155 42.9851C273.155 44.4832 272.748 45.6175 271.935 46.388C271.164 47.1584 270.03 47.5436 268.532 47.5436H257.97C255.4 47.5436 253.316 49.6277 253.316 52.1984V52.1984C253.316 54.7692 255.4 56.8532 257.97 56.8532H269.944C271.485 56.8532 272.641 57.2599 273.411 58.0731C274.182 58.8436 274.567 59.9564 274.567 61.4117C274.567 62.9098 274.182 64.0441 273.411 64.8145C272.641 65.585 271.485 65.9702 269.944 65.9702H248.179Z" fill="white"/>
<path d="M217.017 66.6764C215.305 66.6764 213.507 66.548 211.624 66.2912C209.783 66.0772 208.028 65.7348 206.359 65.2639C204.69 64.7931 203.191 64.2367 201.865 63.5946C200.709 63.0382 199.896 62.3105 199.425 61.4117C198.954 60.47 198.783 59.4856 198.911 58.4583C199.04 57.431 199.403 56.5322 200.003 55.7617C200.602 54.9485 201.394 54.4134 202.378 54.1566C203.363 53.857 204.476 53.9854 205.717 54.5418C207.343 55.3123 209.184 55.9115 211.238 56.3395C213.293 56.7676 215.219 56.9816 217.017 56.9816C219.842 56.9816 221.811 56.6178 222.924 55.8901C224.079 55.1197 224.657 54.178 224.657 53.0651C224.657 52.0807 224.25 51.2888 223.437 50.6896C222.667 50.0903 221.276 49.5767 219.264 49.1487L211.752 47.5436C207.643 46.6875 204.583 45.1894 202.571 43.0493C200.559 40.9092 199.553 38.1484 199.553 34.767C199.553 32.5412 200.003 30.5295 200.901 28.7318C201.843 26.8912 203.149 25.3289 204.818 24.0449C206.53 22.7608 208.542 21.7763 210.853 21.0915C213.207 20.3638 215.818 20 218.686 20C220.912 20 223.159 20.2568 225.427 20.7704C227.739 21.2413 229.729 21.9689 231.398 22.9534C232.383 23.467 233.089 24.1733 233.517 25.0721C233.945 25.971 234.116 26.9126 234.031 27.8971C233.945 28.8388 233.603 29.6734 233.004 30.4011C232.447 31.1287 231.677 31.621 230.692 31.8778C229.751 32.0918 228.616 31.9206 227.289 31.3641C226.048 30.8077 224.636 30.4011 223.052 30.1443C221.511 29.8446 220.013 29.6948 218.558 29.6948C216.974 29.6948 215.626 29.8874 214.513 30.2727C213.4 30.6151 212.544 31.1287 211.945 31.8136C211.388 32.4984 211.11 33.2903 211.11 34.1891C211.11 35.088 211.474 35.8584 212.201 36.5005C212.972 37.0997 214.363 37.6133 216.375 38.0414L223.822 39.6465C227.974 40.5453 231.077 42.022 233.132 44.0766C235.186 46.1311 236.214 48.8063 236.214 52.1021C236.214 54.3278 235.764 56.3395 234.865 58.1373C233.967 59.935 232.683 61.4759 231.013 62.76C229.344 64.0012 227.332 64.9643 224.978 65.6491C222.624 66.334 219.97 66.6764 217.017 66.6764Z" fill="white"/>
<path d="M179.977 66.6764C174.97 66.6764 170.668 65.7134 167.072 63.7872C163.477 61.8611 160.716 59.1431 158.79 55.6333C156.907 52.1235 155.965 48.0144 155.965 43.3061C155.965 39.7963 156.5 36.6075 157.57 33.7397C158.683 30.8719 160.267 28.4107 162.321 26.3562C164.419 24.3017 166.944 22.7394 169.897 21.6693C172.894 20.5564 176.254 20 179.977 20C181.946 20 183.979 20.2354 186.077 20.7062C188.217 21.1343 190.1 21.7977 191.727 22.6966C192.925 23.3386 193.76 24.1519 194.231 25.1363C194.702 26.1208 194.851 27.1267 194.68 28.1539C194.552 29.1812 194.188 30.1015 193.589 30.9147C192.989 31.728 192.219 32.2844 191.277 32.584C190.336 32.8408 189.308 32.691 188.196 32.1346C186.911 31.5353 185.627 31.0859 184.343 30.7863C183.102 30.4439 181.797 30.2727 180.427 30.2727C177.773 30.2727 175.547 30.7863 173.75 31.8136C171.995 32.798 170.668 34.2533 169.769 36.1794C168.87 38.1056 168.421 40.4811 168.421 43.3061C168.421 46.1311 168.87 48.528 169.769 50.497C170.668 52.4231 171.995 53.8998 173.75 54.9271C175.547 55.9115 177.773 56.4038 180.427 56.4038C181.54 56.4038 182.738 56.2753 184.022 56.0185C185.306 55.7189 186.569 55.2695 187.81 54.6702C189.094 54.1138 190.229 53.964 191.213 54.2208C192.24 54.4776 193.054 54.9913 193.653 55.7617C194.295 56.5322 194.702 57.431 194.873 58.4583C195.044 59.4427 194.894 60.4272 194.423 61.4117C193.995 62.3961 193.225 63.188 192.112 63.7872C190.614 64.6861 188.752 65.3923 186.526 65.906C184.343 66.4196 182.16 66.6764 179.977 66.6764Z" fill="white"/>
<path d="M132.269 66.6764C127.09 66.6764 122.681 65.7134 119.043 63.7872C115.448 61.8611 112.708 59.1645 110.825 55.6975C108.942 52.2305 108 48.1856 108 43.5629C108 39.9675 108.556 36.7359 109.669 33.8681C110.825 30.9575 112.473 28.4749 114.613 26.4204C116.753 24.3231 119.364 22.7394 122.446 21.6693C125.571 20.5564 129.102 20 133.04 20C135.18 20 137.363 20.214 139.588 20.642C141.814 21.0273 143.997 21.7763 146.137 22.8892C147.25 23.4028 147.999 24.1305 148.384 25.0721C148.812 25.971 148.941 26.934 148.77 27.9613C148.641 28.9458 148.277 29.866 147.678 30.7221C147.122 31.5353 146.351 32.0918 145.367 32.3914C144.382 32.6482 143.269 32.4984 142.028 31.942C140.744 31.3427 139.353 30.8933 137.855 30.5937C136.357 30.2513 134.773 30.0801 133.104 30.0801C130.236 30.0801 127.839 30.5937 125.913 31.6209C124.03 32.6482 122.617 34.1677 121.675 36.1794C120.734 38.1912 120.263 40.6523 120.263 43.5629C120.263 47.9288 121.333 51.2246 123.473 53.4504C125.613 55.6761 128.781 56.789 132.975 56.789C134.259 56.789 135.651 56.6606 137.149 56.4038C138.135 56.2394 139.121 56.0313 140.107 55.7793C140.741 55.6171 141.297 56.2757 141.007 56.8633V56.8633C140.657 57.5733 139.588 57.3243 139.588 56.5328V50.8381C139.588 49.6923 138.66 48.7635 137.514 48.7635H135.094C133.639 48.7635 132.505 48.3996 131.691 47.672C130.921 46.9443 130.536 45.9171 130.536 44.5902C130.536 43.2633 130.921 42.2574 131.691 41.5726C132.505 40.8449 133.639 40.4811 135.094 40.4811H144.596C146.094 40.4811 147.229 40.8877 147.999 41.701C148.812 42.4715 149.219 43.6057 149.219 45.1038V59.2929C149.219 60.577 148.941 61.6685 148.384 62.5674C147.871 63.4662 147.036 64.1083 145.88 64.4935C143.869 65.1783 141.686 65.7134 139.332 66.0986C136.977 66.4838 134.623 66.6764 132.269 66.6764Z" fill="white"/>
<rect width="53.9641" height="42.1594" rx="10" fill="white"/>
<path d="M21.8667 36.2571H7.05908C5.95451 36.2571 5.05908 37.1525 5.05908 38.2571V51.9256C5.05908 53.6691 7.13451 54.5778 8.41565 53.3952L23.2232 39.7267C24.561 38.4918 23.6873 36.2571 21.8667 36.2571Z" fill="white"/>
<path d="M21.9953 28.4845C21.6875 29.4321 20.8044 30.0737 19.8081 30.0737V30.0737C18.2285 30.0737 17.1191 28.5178 17.6339 27.0245L23.084 11.2146C23.658 9.54943 25.2253 8.43188 26.9867 8.43188V8.43188C28.7487 8.43188 30.3165 9.55026 30.89 11.2163L36.332 27.0251C36.846 28.5185 35.7366 30.0737 34.1573 30.0737V30.0737C33.1603 30.0737 32.2769 29.4314 31.9694 28.4831L27.0978 13.4577C27.0823 13.4098 27.0377 13.3774 26.9873 13.3774V13.3774C26.937 13.3774 26.8924 13.4098 26.8769 13.4576L21.9953 28.4845ZM21.173 23.3529C21.173 22.3666 21.9726 21.567 22.9589 21.567H30.9525C31.9388 21.567 32.7384 22.3666 32.7384 23.3529V23.3529C32.7384 24.3392 31.9388 25.1388 30.9525 25.1388H22.9589C21.9726 25.1388 21.173 24.3392 21.173 23.3529V23.3529Z" fill="#000000"/>
<mask id="path-14-inside-1_7_483" fill="white">
<path fill-rule="evenodd" clip-rule="evenodd" d="M90.0389 66.4398C91.58 62.6568 92.4291 58.5183 92.4291 54.1815C92.4291 36.2258 77.8731 21.6698 59.9174 21.6698C41.9617 21.6698 27.4058 36.2258 27.4058 54.1815C27.4058 72.1372 41.9617 86.6931 59.9174 86.6931C66.275 86.6931 72.2063 84.8684 77.2162 81.714L87.01 84.3824C90.7236 85.3942 94.1399 82.0064 93.1593 78.2844L90.0389 66.4398Z"/>
</mask>
<path fill-rule="evenodd" clip-rule="evenodd" d="M90.0389 66.4398C91.58 62.6568 92.4291 58.5183 92.4291 54.1815C92.4291 36.2258 77.8731 21.6698 59.9174 21.6698C41.9617 21.6698 27.4058 36.2258 27.4058 54.1815C27.4058 72.1372 41.9617 86.6931 59.9174 86.6931C66.275 86.6931 72.2063 84.8684 77.2162 81.714L87.01 84.3824C90.7236 85.3942 94.1399 82.0064 93.1593 78.2844L90.0389 66.4398Z" fill="white"/>
<path d="M90.0389 66.4398L87.2606 65.308L86.8827 66.2355L87.1379 67.2041L90.0389 66.4398ZM77.2162 81.714L78.0048 78.8195L76.7331 78.473L75.6178 79.1753L77.2162 81.714ZM87.01 84.3824L86.2213 87.2768L86.2213 87.2768L87.01 84.3824ZM93.1593 78.2844L90.2583 79.0487L90.2583 79.0487L93.1593 78.2844ZM89.4291 54.1815C89.4291 58.1236 88.6578 61.8782 87.2606 65.308L92.8172 67.5716C94.5022 63.4354 95.4291 58.913 95.4291 54.1815H89.4291ZM59.9174 24.6698C76.2163 24.6698 89.4291 37.8826 89.4291 54.1815H95.4291C95.4291 34.5689 79.53 18.6698 59.9174 18.6698V24.6698ZM30.4058 54.1815C30.4058 37.8826 43.6186 24.6698 59.9174 24.6698V18.6698C40.3049 18.6698 24.4058 34.5689 24.4058 54.1815H30.4058ZM59.9174 83.6931C43.6186 83.6931 30.4058 70.4803 30.4058 54.1815H24.4058C24.4058 73.794 40.3049 89.6931 59.9174 89.6931V83.6931ZM75.6178 79.1753C71.0724 82.0371 65.6929 83.6931 59.9174 83.6931V89.6931C66.857 89.6931 73.3401 87.6996 78.8146 84.2527L75.6178 79.1753ZM87.7986 81.4879L78.0048 78.8195L76.4276 84.6085L86.2213 87.2768L87.7986 81.4879ZM90.2583 79.0487C90.6506 80.5375 89.284 81.8926 87.7986 81.4879L86.2213 87.2768C92.1632 88.8957 97.6293 83.4753 96.0604 77.5201L90.2583 79.0487ZM87.1379 67.2041L90.2583 79.0487L96.0604 77.5201L92.9399 65.6755L87.1379 67.2041Z" fill="#000000" mask="url(#path-14-inside-1_7_483)"/>
<path d="M59.9249 74.5947C58.234 74.5947 56.8497 73.2502 56.8004 71.56L56.1339 48.7135C56.0825 46.9522 57.4964 45.4965 59.2584 45.4965V45.4965C60.9493 45.4965 62.3336 46.8411 62.3829 48.5312L63.0494 71.3778C63.1008 73.1391 61.6869 74.5947 59.9249 74.5947V74.5947ZM55.8904 42.37C55.0772 42.5546 54.2741 42.0446 54.0743 41.235V41.235C53.8574 40.356 54.4349 39.4843 55.3231 39.3092C55.5839 39.2578 55.808 39.2104 55.9954 39.167C56.2926 39.102 56.599 39.0326 56.9145 38.9586C57.2392 38.8824 57.5171 39.2042 57.3915 39.5132V39.5132C57.3099 39.7137 57.0853 39.8175 56.8876 39.7294C56.2413 39.4413 55.6163 38.9754 55.0126 38.3319C54.3276 37.5407 53.9851 36.6469 53.9851 35.6506C53.9851 34.5957 54.2233 33.7459 54.6999 33.1012C55.1764 32.4566 55.7869 31.9877 56.5315 31.6947C57.2761 31.4016 58.0504 31.2551 58.8545 31.2551C59.3013 31.2551 59.7182 31.2844 60.1054 31.343V31.343C60.7724 31.4368 61.1688 32.0798 61.0933 32.749L60.967 33.8667C60.912 34.354 60.4526 34.6904 59.9714 34.5957V34.5957C59.6736 34.5371 59.3459 34.5078 58.9886 34.5078C58.6014 34.5078 58.244 34.6397 57.9164 34.9034C57.6186 35.1378 57.4696 35.4309 57.4696 35.7825C57.4696 36.2806 57.6483 36.7202 58.0057 37.1011C58.3631 37.4821 58.7801 37.7898 59.2566 38.0242C59.3409 38.0584 59.4228 38.0901 59.5022 38.1194C59.6182 38.1622 59.596 38.4737 59.473 38.4869V38.4869C59.3467 38.5004 59.3113 38.3081 59.4338 38.2746C59.7396 38.1912 60.0379 38.1077 60.3288 38.0242C60.4913 37.9709 60.6516 37.9176 60.8095 37.8642C61.6426 37.583 62.5551 38.033 62.8104 38.8743V38.8743C63.0466 39.653 62.6289 40.4802 61.8565 40.7362C61.4626 40.8668 61.0427 41.0031 60.5968 41.145C59.614 41.438 58.5865 41.7164 57.5143 41.9801C56.9689 42.1181 56.4276 42.2481 55.8904 42.37Z" fill="#000000"/>
</svg>
